<?xml version="1.0" encoding="utf-8"?>
<!-- Generator: Adobe Illustrator 18.1.0, SVG Export Plug-In . SVG Version: 6.00 Build 0)  -->
<svg version="1.1" id="Layer_1" xmlns="http://www.w3.org/2000/svg" xmlns:xlink="http://www.w3.org/1999/xlink" x="0px" y="0px"
	 viewBox="0 0 400 100" enable-background="new 0 0 400 100" xml:space="preserve">
<g>
	<g>
		<path fill="#FFFFFF" d="M139.6,63.5l1.1,3.7h0.2l1.1-3.7l13.3-38.8h6.9l-18.7,50.6H138l-18.7-50.6h6.9L139.6,63.5z"/>
		<path fill="#FFFFFF" d="M182.6,75.2c-0.2-1.1-0.4-2-0.5-2.8c-0.1-0.8-0.2-1.6-0.2-2.4c-1.2,1.7-2.7,3.1-4.6,4.2
			c-1.9,1.1-4,1.7-6.2,1.7c-3.7,0-6.4-0.9-8.3-2.8c-1.9-1.9-2.9-4.4-2.9-7.7c0-3.3,1.4-6,4.1-7.9c2.7-1.9,6.4-2.8,11-2.8h6.9v-3.5
			c0-2.1-0.6-3.7-1.9-4.9c-1.3-1.2-3-1.8-5.3-1.8c-2.1,0-3.7,0.5-5,1.6c-1.3,1-1.9,2.3-1.9,3.8h-6.1l-0.1-0.2
			c-0.1-2.5,1.1-4.9,3.6-7c2.5-2.1,5.8-3.2,9.8-3.2c4,0,7.2,1,9.6,3c2.4,2,3.6,4.9,3.6,8.7v16.9c0,1.3,0.1,2.5,0.2,3.6
			c0.1,1.2,0.4,2.3,0.7,3.4H182.6z M172,70.5c2.3,0,4.4-0.6,6.3-1.8c1.9-1.2,3.1-2.5,3.6-4.1V59h-7.2c-2.6,0-4.6,0.6-6.2,1.9
			c-1.5,1.3-2.3,2.8-2.3,4.6c0,1.6,0.5,2.8,1.5,3.7C168.7,70.1,170.1,70.5,172,70.5z"/>
		<path fill="#FFFFFF" d="M201.3,40.2l0.5,5.2c1.2-1.9,2.6-3.3,4.4-4.3c1.8-1,3.8-1.5,6-1.5c3.8,0,6.7,1.1,8.8,3.3
			c2.1,2.2,3.1,5.6,3.1,10.3v22.1h-6.4v-22c0-3.1-0.6-5.3-1.8-6.6c-1.2-1.3-3.1-1.9-5.6-1.9c-1.8,0-3.5,0.4-4.9,1.3
			c-1.4,0.9-2.5,2.1-3.4,3.6v25.6h-6.4V40.2H201.3z"/>
		<path fill="#FFFFFF" d="M252.5,75.2c-0.2-1.1-0.4-2-0.5-2.8c-0.1-0.8-0.2-1.6-0.2-2.4c-1.2,1.7-2.7,3.1-4.6,4.2
			c-1.9,1.1-4,1.7-6.2,1.7c-3.7,0-6.4-0.9-8.3-2.8c-1.9-1.9-2.9-4.4-2.9-7.7c0-3.3,1.4-6,4.1-7.9c2.7-1.9,6.4-2.8,11-2.8h6.9v-3.5
			c0-2.1-0.6-3.7-1.9-4.9c-1.3-1.2-3-1.8-5.3-1.8c-2.1,0-3.7,0.5-5,1.6c-1.3,1-1.9,2.3-1.9,3.8h-6.1l-0.1-0.2
			c-0.1-2.5,1.1-4.9,3.6-7c2.5-2.1,5.8-3.2,9.8-3.2c4,0,7.2,1,9.6,3c2.4,2,3.6,4.9,3.6,8.7v16.9c0,1.3,0.1,2.5,0.2,3.6
			c0.1,1.2,0.4,2.3,0.7,3.4H252.5z M241.9,70.5c2.3,0,4.4-0.6,6.3-1.8c1.9-1.2,3.1-2.5,3.6-4.1V59h-7.2c-2.6,0-4.6,0.6-6.2,1.9
			c-1.5,1.3-2.3,2.8-2.3,4.6c0,1.6,0.5,2.8,1.5,3.7C238.6,70.1,240,70.5,241.9,70.5z"/>
		<path fill="#FFFFFF" d="M263.9,58.4c0-5.6,1.2-10.2,3.6-13.6c2.4-3.5,5.8-5.2,10.1-5.2c2.1,0,3.9,0.4,5.5,1.1
			c1.6,0.8,2.9,1.9,4.1,3.3V24.7h6.4v50.5h-5.2l-0.7-4.3c-1.1,1.6-2.5,2.9-4.2,3.7c-1.7,0.8-3.6,1.3-5.8,1.3c-4.3,0-7.6-1.5-10-4.6
			c-2.4-3.1-3.6-7.2-3.6-12.2V58.4z M270.3,59c0,3.5,0.7,6.4,2.2,8.5c1.4,2.1,3.7,3.2,6.7,3.2c1.9,0,3.5-0.4,4.8-1.3
			c1.3-0.9,2.4-2.1,3.2-3.6V49.4c-0.8-1.4-1.9-2.6-3.2-3.5c-1.3-0.9-2.9-1.3-4.7-1.3c-3.1,0-5.3,1.3-6.8,3.8
			c-1.5,2.5-2.2,5.8-2.2,9.8V59z"/>
		<path fill="#FFFFFF" d="M307.7,31.2h-6.4v-6.5h6.4V31.2z M307.7,75.2h-6.4V40.2h6.4V75.2z"/>
		<path fill="#FFFFFF" d="M337.6,70.1c-1.1,1.9-2.5,3.3-4.2,4.3c-1.7,1-3.7,1.5-6,1.5c-3.8,0-6.8-1.2-8.9-3.7
			c-2.1-2.4-3.2-6.2-3.2-11.4V40.2h6.4v20.7c0,3.7,0.6,6.3,1.7,7.7c1.1,1.4,2.8,2.1,5.2,2.1c2.3,0,4.1-0.5,5.6-1.4
			c1.5-0.9,2.6-2.2,3.4-3.9V40.2h6.4v35.1h-5.7L337.6,70.1z"/>
		<path fill="#FFFFFF" d="M357,40.2l0.5,4.6c1.1-1.7,2.6-3,4.4-3.9c1.8-0.9,3.8-1.4,6.1-1.4c2.3,0,4.3,0.5,6,1.6
			c1.7,1.1,2.9,2.7,3.8,4.9c1.1-2,2.6-3.6,4.4-4.7c1.8-1.2,3.9-1.7,6.3-1.7c3.6,0,6.4,1.2,8.5,3.7c2.1,2.5,3.1,6.1,3.1,11.1v21h-6.4
			v-21c0-3.5-0.6-5.9-1.8-7.3c-1.2-1.4-3-2.2-5.3-2.2c-2.2,0-3.9,0.8-5.3,2.3c-1.3,1.5-2.1,3.4-2.4,5.7V53v22.3h-6.4v-21
			c0-3.3-0.6-5.7-1.8-7.2c-1.2-1.5-3-2.3-5.3-2.3c-1.9,0-3.5,0.4-4.8,1.2c-1.3,0.8-2.2,1.9-2.9,3.4v26h-6.4V40.2H357z"/>
	</g>
	<path fill="#FFFFFF" d="M95.8,13C92.7,7.6,87.2,4.4,81,4.4H15c-1.4,0-2.6,0.7-3.3,1.9C11,7.5,11,9,11.7,10.1l8,13.9L3.8,24
		c-1.4,0-2.6,0.7-3.3,1.9c-0.7,1.2-0.7,2.6,0,3.8L33.4,87c3.1,5.4,8.6,8.6,14.9,8.6c6.2,0,11.8-3.2,14.9-8.6l32.7-56.8
		C98.9,24.8,98.9,18.4,95.8,13z M89.2,26.3L56.5,83.2c-1.7,3-4.8,4.8-8.3,4.8c-3.4,0-6.5-1.8-8.3-4.8L10.4,31.7h13.7l17.8,30.8
		c-0.6,1-0.9,2.2-0.9,3.5c0,4,3.3,7.3,7.3,7.3c4,0,7.3-3.3,7.3-7.3c0-1.3-0.3-2.5-0.9-3.5l15.7-27.3c3.9-0.1,7.1-3.3,7.1-7.3
		c0-4-3.3-7.3-7.3-7.3c-2.6,0-4.9,1.4-6.2,3.5l-35.5,0l-6.9-12H81c3.4,0,6.5,1.8,8.2,4.8C90.9,19.8,90.9,23.3,89.2,26.3z M63.6,31.7
		L48.3,58.4L32.9,31.7L63.6,31.7z"/>
</g>
</svg>
