<?xml version="1.0" encoding="UTF-8" standalone="no"?>
<svg width="31px" height="30px" viewBox="0 0 31 30" version="1.1" xmlns="http://www.w3.org/2000/svg" xmlns:xlink="http://www.w3.org/1999/xlink" xmlns:sketch="http://www.bohemiancoding.com/sketch/ns">
    <!-- Generator: Sketch 3.3 (11970) - http://www.bohemiancoding.com/sketch -->
    <title>twitter</title>
    <desc>Created with Sketch.</desc>
    <defs></defs>
    <g id="Page-1" stroke="none" stroke-width="1" fill="none" fill-rule="evenodd" sketch:type="MSPage">
        <g id="twitter" sketch:type="MSLayerGroup" transform="translate(-1.000000, -1.000000)">
            <path d="M0.5,0 L32.5,0 L32.5,32 L0.5,32 L0.5,0 Z" id="Shape" sketch:type="MSShapeGroup"></path>
            <path d="M1.5,15.0435275 C1.99372565,7.2047279 8.5137978,1 16.484985,1 C24.7777778,1 31.5,7.7155 31.5,16 C31.5,24.2845 24.7777778,31 16.484985,31 C8.5137978,31 1.99372565,24.7952721 1.5,16.9564725 L1.5,15.0435275 L1.5,15.0435275 Z M19.346457,8.5539494 C17.6408047,9.17460105 16.5629679,10.7754004 16.6854049,12.5272922 L16.7264344,13.2033011 L16.0439129,13.1205909 C13.5606551,12.8034269 11.3906537,11.7275438 9.54823658,9.91964354 L8.64754273,9.02285726 L8.41569384,9.68518961 C7.92464312,11.1615981 8.23855088,12.7207167 9.26168177,13.7692468 C9.80743842,14.348869 9.68500137,14.4315792 8.74327808,14.0864109 C8.41569384,13.9763478 8.12913904,13.8936376 8.10178608,13.9346671 C8.00605073,14.031705 8.33363497,15.2866847 8.59283681,15.7835968 C8.94777401,16.4732821 9.67132489,17.149291 10.4626069,17.5498164 L11.1314519,17.8669805 L10.3401698,17.880657 C9.57558953,17.880657 9.54823658,17.8943334 9.63029545,18.1841445 C9.90317377,19.0809308 10.9810106,20.0330743 12.1819357,20.4472762 L13.0279236,20.7370873 L12.2913475,21.177991 C11.1998343,21.8129704 9.91685025,22.1718151 8.63386625,22.1991681 C8.01972721,22.2128446 7.515,22.2682017 7.515,22.3098824 C7.515,22.4472985 9.1796229,23.2203452 10.1486991,23.5238328 C13.0552766,24.4206191 16.508262,24.0344213 19.1009317,22.5026557 C20.9433488,21.4130962 22.7857659,19.2463511 23.6454303,17.149291 C24.1091281,16.0317272 24.5734771,13.9900243 24.5734771,13.0105278 C24.5734771,12.3755484 24.6138553,12.2928383 25.3784356,11.5341193 C25.8284569,11.0925644 26.2517765,10.6099801 26.3338354,10.4719128 C26.4699489,10.2094546 26.4562724,10.2094546 25.7607258,10.4445598 C24.6008301,10.8581105 24.4367123,10.8027533 25.0098219,10.1821017 C25.4331415,9.74054679 25.9378688,8.94014712 25.9378688,8.70569319 C25.9378688,8.66466375 25.7333728,8.73369741 25.5015239,8.85743699 C25.2553473,8.9955043 24.7095907,9.20260527 24.3005988,9.32634484 L23.5633715,9.56145003 L22.8945265,9.10556739 C22.5265641,8.85743699 22.0075091,8.58195362 21.7346308,8.49859222 C21.0390842,8.30581899 19.9742726,8.33317195 19.346457,8.5539494 L19.346457,8.5539494 L19.346457,8.5539494 Z" id="path-1" fill="#90A4AE" sketch:type="MSShapeGroup"></path>
        </g>
    </g>
</svg>